<svg width="80" height="80" viewBox="0 0 80 80" fill="none" xmlns="http://www.w3.org/2000/svg">
<g opacity="0.4">
<path opacity="0.3" d="M8.45168 33.0674H71.2175C70.8431 31.5701 70.4688 30.0726 69.8448 28.7L75.5848 23.8335L72.091 17.844L64.9784 20.4645C63.4811 18.5928 61.7341 16.8458 59.7375 15.2236L62.3579 8.1109L56.3684 4.61704L51.6267 10.6066C49.3806 9.73308 47.0096 9.10924 44.5141 8.7349L43.2663 1.37268H36.4032L35.1554 8.7349C32.6597 9.10924 30.2888 9.73324 28.0428 10.6066L23.1763 4.86654L17.1867 8.3604L19.8072 15.473C17.9356 16.9703 16.1886 18.7173 14.5664 20.7138L7.45382 18.0933L3.95996 24.0829L9.7 28.9494C9.20036 30.0727 8.82602 31.5701 8.45168 33.0674Z" fill="#777F88"/>
<path fill-rule="evenodd" clip-rule="evenodd" d="M8.45172 34.3152H71.0927C71.467 34.3152 71.9662 34.0657 72.216 33.8166C72.4655 33.5669 72.5903 33.1926 72.4655 32.8182C72.0912 31.4455 71.7168 30.1977 71.3425 29.0747L76.4585 24.832C76.8329 24.3328 76.9575 23.709 76.708 23.2098L73.2142 17.2203C72.9647 16.7211 72.3407 16.4716 71.7168 16.7211L65.4776 18.9671C64.2298 17.4698 62.8571 16.0971 61.3598 14.8493L63.6058 8.61006C63.8553 7.98622 63.6058 7.36222 63.1066 7.11271L57.1171 3.61885C56.4932 3.24451 55.8692 3.36919 55.4949 3.86836L51.2522 8.9844C49.3805 8.36055 47.5087 7.86139 45.637 7.48705L44.514 0.998337C44.3891 0.374337 43.89 0 43.2661 0H36.4031C35.7791 0 35.2801 0.374337 35.1552 0.998337L34.0322 7.48705C32.1605 7.86139 30.2887 8.36055 28.417 8.9844L24.1743 3.86836C23.6752 3.49402 23.0513 3.36935 22.5522 3.61885L16.5626 7.11271C16.0634 7.36222 15.8139 7.98622 16.0634 8.61006L18.3096 14.8488C16.8123 16.0966 15.4396 17.4693 14.1918 18.9667L7.95255 16.7206C7.32871 16.4711 6.70471 16.7206 6.4552 17.2198L2.96134 23.2093C2.587 23.8332 2.71168 24.4572 3.21085 24.8315L8.32689 29.0742C7.82772 30.3221 7.45338 31.5699 7.20388 32.8177C7.07904 33.0674 7.20388 33.5666 7.45338 33.8161C7.70304 34.1904 8.07738 34.3152 8.45172 34.3152ZM69.5953 31.8197H10.0739C10.3234 30.9462 10.5731 30.0727 10.9474 29.0745C11.0722 28.5754 10.9474 28.0762 10.5731 27.7019L5.5817 23.584L7.95255 19.4661L14.1913 21.5875C14.6904 21.837 15.1896 21.5875 15.564 21.2131C17.0615 19.3413 18.6836 17.7191 20.5553 16.2218C20.9297 15.9721 21.0545 15.3483 20.9297 14.8491L18.6836 8.73473L22.8015 6.36388L26.9194 11.3552C27.169 11.7296 27.7929 11.9791 28.292 11.7296C30.5381 10.8562 32.7842 10.2322 35.1551 9.8579C35.6543 9.73307 36.0286 9.35873 36.1534 8.85956L37.2764 2.49568H42.143L43.266 8.85956C43.266 9.35873 43.7651 9.73307 44.2643 9.8579C46.6352 10.2322 48.8813 10.8561 51.1274 11.7296C51.6265 11.8544 52.2504 11.7296 52.7495 11.4801L56.8674 6.48871L60.9851 8.85925L58.7391 14.9736C58.4896 15.4728 58.7391 15.972 59.1134 16.3463C60.9853 17.8438 62.6074 19.466 64.1048 21.3377C64.3545 21.712 64.9783 21.8368 65.4775 21.712L71.5918 19.466L74.0875 23.7087L69.0962 27.8265C68.7218 28.0762 68.4723 28.7 68.7218 29.1992C68.8008 29.436 68.8921 29.6976 68.9881 29.9724C69.1957 30.5667 69.4247 31.2224 69.5953 31.8197Z" fill="#777F88"/>
<path opacity="0.3" d="M71.0927 46.7937H8.45172C8.82605 48.291 9.20039 49.7886 9.82439 51.1611L4.08435 56.0276L7.57821 62.0171L14.6908 59.3966C16.1881 61.2683 17.9351 63.0153 19.9316 64.6375L17.3111 71.7501L23.3007 75.2439L27.9177 69.2544C30.1637 70.1279 32.5347 70.7517 35.0303 71.1261L36.2781 78.4883H43.1411L44.389 71.1261C46.8847 70.7517 49.2555 70.1277 51.5015 69.2544L56.3681 74.9944L62.3576 71.5006L59.7371 64.388C61.6088 62.8907 63.3558 61.1436 64.978 59.1471L72.0905 61.7676L75.5844 55.7781L69.8444 50.9116C70.344 49.7884 70.8432 48.291 71.0927 46.7937Z" fill="#777F88"/>
<path fill-rule="evenodd" clip-rule="evenodd" d="M36.4031 79.8611H43.2662C43.7653 79.8611 44.3892 79.4868 44.5138 78.8629L45.6369 72.3742C47.5085 71.9999 49.3804 71.5007 51.2521 70.8769L55.4948 75.9929C55.8691 76.3672 56.6178 76.4919 57.1169 76.2424L63.1065 72.7485C63.6056 72.499 63.8552 71.875 63.6056 71.2512L61.3596 65.012C62.857 63.7641 64.2296 62.3915 65.4775 60.8941L71.7167 63.1401C72.3405 63.3897 72.9645 63.1401 73.214 62.641L76.7079 56.6514C77.0822 56.0276 76.9576 55.4036 76.4584 55.0293L71.3424 50.7866C71.8415 49.5387 72.2159 48.2909 72.4654 47.043C72.5902 46.7934 72.4654 46.419 72.2159 46.0447C71.9662 45.6704 71.5919 45.5455 71.2175 45.5455H8.45175C8.07725 45.5455 7.70291 45.6704 7.45341 46.0447C7.2039 46.2944 7.07907 46.6687 7.2039 47.043C7.57824 48.4157 7.95258 49.6636 8.32691 50.7866L3.21087 55.0293C2.83654 55.5284 2.71186 56.1523 2.96137 56.6514L6.45523 62.641C6.70474 63.1401 7.32874 63.3897 7.95258 63.1401L14.1916 60.8941C15.4395 62.3915 16.8121 63.7641 18.3095 65.012L16.0635 71.2512C15.814 71.875 16.0635 72.499 16.5626 72.7485L22.5522 76.2424C23.176 76.6167 23.8 76.4921 24.1744 75.9929L28.4171 70.8767C30.2887 71.5005 32.1606 71.9997 34.0323 72.374L35.1553 78.8628C35.2801 79.4868 35.7793 79.8611 36.4031 79.8611ZM42.143 77.3654H37.4013L36.0291 70.8769C36.0291 70.3777 35.5299 70.0034 35.0308 69.8785C32.6599 69.5042 30.4137 68.8803 28.1677 68.0068C27.6685 67.882 27.1694 68.0068 26.795 68.3812L22.6772 73.3725L18.5593 71.0017L20.8053 64.8873C21.0548 64.3881 20.8053 63.889 20.431 63.5146C18.5592 62.0171 16.937 60.395 15.4396 58.5233C15.19 58.1489 14.5661 58.0241 14.067 58.1489L7.95258 60.395L5.58173 56.4018L10.5731 52.2839C10.9474 52.0342 11.1969 51.4104 10.9474 50.9112C10.8685 50.6745 10.7771 50.4128 10.6811 50.138C10.4735 49.5437 10.2445 48.888 10.0739 48.2907H69.2212L69.2203 48.2939C68.9709 49.1664 68.7215 50.0388 68.3477 50.9112C68.2228 51.4104 68.3477 51.9096 68.722 52.2839L73.7134 56.4018L71.3425 60.5196L65.2281 58.2736C64.729 58.0241 64.2298 58.2736 63.8555 58.6479C62.358 60.5198 60.7358 62.142 58.8641 63.6393C58.4898 63.889 58.3649 64.5128 58.4898 65.012L60.7358 71.1264L56.6179 73.4972L52.5001 68.5058C52.2504 68.1315 51.6266 67.882 51.1274 68.1315C48.8814 69.0049 46.6352 69.6289 44.2643 70.0032C43.7652 70.128 43.3908 70.5024 43.266 71.0015L42.143 77.3654Z" fill="#777F88"/>
<path d="M1.33899 39.3066C22.5521 66.2598 57.1169 66.2598 78.33 39.3066C56.9922 12.3535 22.5521 12.3535 1.33899 39.3066Z" fill="white"/>
<path fill-rule="evenodd" clip-rule="evenodd" d="M0.340811 40.0553C10.8226 53.4071 24.7983 60.7693 39.7723 60.7693C54.7462 60.7693 68.7218 53.4071 79.2037 40.0553C79.578 39.681 79.578 39.0571 79.2037 38.558C68.722 25.2062 54.6215 17.844 39.7723 17.844C24.923 17.844 10.8226 25.2062 0.340811 38.558C-0.0335256 38.9323 -0.0335256 39.5562 0.340811 40.0553ZM39.7723 58.2736C25.9213 58.2736 12.8191 51.5354 2.83649 39.3066C12.8191 27.0779 25.9213 20.3397 39.7723 20.3397C53.6232 20.3397 66.7254 27.0779 76.708 39.3066C66.7254 51.5354 53.6232 58.2736 39.7723 58.2736Z" fill="#777F88"/>
<path opacity="0.3" d="M39.7722 56.0276C49.0069 56.0276 56.4932 48.5414 56.4932 39.3066C56.4932 30.0719 49.0069 22.5857 39.7722 22.5857C30.5375 22.5857 23.0513 30.0719 23.0513 39.3066C23.0513 48.5414 30.5375 56.0276 39.7722 56.0276Z" fill="#777F88"/>
<path d="M39.7723 49.6635C34.0323 49.6635 29.4154 45.0465 29.4154 39.3066C29.4154 33.5667 34.0324 28.9497 39.7723 28.9497C45.5122 28.9497 50.1292 33.5667 50.1292 39.3066C50.1292 45.0465 45.5122 49.6635 39.7723 49.6635Z" fill="#777F88"/>
<path d="M46.261 35.5632C47.915 35.5632 49.2558 34.2223 49.2558 32.5683C49.2558 30.9143 47.915 29.5735 46.261 29.5735C44.607 29.5735 43.2661 30.9143 43.2661 32.5683C43.2661 34.2223 44.607 35.5632 46.261 35.5632Z" fill="white"/>
</g>
</svg>
