<svg width="80" height="80" viewBox="0 0 80 80" fill="none" xmlns="http://www.w3.org/2000/svg">
<g opacity="0.4">
<path opacity="0.4" d="M75.6185 68.8801L65.7606 63.5144L55.9027 68.8801C54.031 69.8784 52.9078 71.875 52.9078 73.9961V78.6132H78.7379V73.9961C78.6132 71.875 77.4902 69.8784 75.6185 68.8801Z" fill="#777F88"/>
<path fill-rule="evenodd" clip-rule="evenodd" d="M52.7832 79.861H78.6133C79.3619 79.861 79.8611 79.3618 79.7364 78.6132V73.9961C79.7364 71.3756 78.3638 69.0048 76.1177 67.7569L66.2598 62.3912C65.8855 62.1417 65.3863 62.1417 65.012 62.3912L55.1541 67.7569C52.9081 69.0048 51.5354 71.3756 51.5354 73.9961V78.6132C51.5354 79.3618 52.0346 79.861 52.7832 79.861ZM77.3654 77.3653H54.0311H53.9063V73.9961C53.9063 72.374 54.7798 70.7518 56.2771 70.0031L65.6358 64.8871L74.9946 70.0031C76.4919 70.7518 77.3654 72.374 77.3654 73.9961V77.3653Z" fill="#777F88"/>
<path d="M72.2494 57.6498C72.2494 62.0172 69.3794 67.0085 65.7607 67.0085C62.142 67.0085 59.272 62.142 59.272 57.6498C59.272 53.1576 62.142 51.0363 65.7607 51.0363C69.3794 51.0363 72.2494 53.2824 72.2494 57.6498Z" fill="white"/>
<path fill-rule="evenodd" clip-rule="evenodd" d="M58.024 57.6497C58.024 62.6411 61.3932 68.2563 65.7606 68.2563C70.128 68.2563 73.4972 62.6411 73.4972 57.6497C73.4972 52.9079 70.3776 49.7883 65.7606 49.7883C61.1436 49.7883 58.024 52.908 58.024 57.6497ZM60.5197 57.7745C60.5197 54.4054 62.5162 52.4088 65.7606 52.4088C69.005 52.4088 71.0015 54.4054 71.0015 57.7745C71.0015 61.7676 68.381 65.8854 65.7606 65.8854C63.1402 65.8854 60.5197 61.7676 60.5197 57.7745Z" fill="#777F88"/>
<path opacity="0.4" d="M49.7884 68.8801L39.9305 63.5144L30.0726 68.8801C28.2009 69.8784 27.0778 71.875 27.0778 73.9961V78.6132H52.9078V73.9961C52.7833 71.875 51.6603 69.8784 49.7884 68.8801Z" fill="#777F88"/>
<path fill-rule="evenodd" clip-rule="evenodd" d="M27.0779 79.861H52.7833C53.5319 79.861 54.0311 79.3618 54.0311 78.6132V73.9961C54.0311 71.3756 52.6584 69.0048 50.4124 67.7569L40.5545 62.3912C40.1802 62.1417 39.681 62.1417 39.3067 62.3912L29.4488 67.7569C27.2028 69.0048 25.8301 71.3756 25.8301 73.9961V78.6132C25.8301 79.3618 26.3292 79.861 27.0779 79.861ZM51.6601 77.3653H28.3258H28.2011V73.9961C28.2011 72.374 29.0746 70.7518 30.5719 70.0031L39.9307 64.8871L49.2892 70.0031C50.7866 70.7518 51.6601 72.374 51.6601 73.9961V77.3653Z" fill="#777F88"/>
<path d="M46.4193 57.6498C46.4193 62.0172 43.5493 67.0085 39.9306 67.0085C36.3119 67.0085 33.4419 62.142 33.4419 57.6498C33.4419 53.1576 36.3119 51.0363 39.9306 51.0363C43.5493 51.0363 46.4193 53.2824 46.4193 57.6498Z" fill="white"/>
<path fill-rule="evenodd" clip-rule="evenodd" d="M32.1941 57.6497C32.1941 62.6411 35.5633 68.2563 39.9306 68.2563C44.298 68.2563 47.667 62.6411 47.6672 57.6497C47.6672 52.9079 44.5477 49.7883 39.9306 49.7883C35.3136 49.7883 32.1941 52.908 32.1941 57.6497ZM34.6898 57.7745C34.6898 54.4054 36.6863 52.4088 39.9306 52.4088C43.175 52.4088 45.1715 54.4054 45.1715 57.7745C45.1715 61.7676 42.551 65.8854 39.9306 65.8854C37.3103 65.8854 34.6898 61.7676 34.6898 57.7745Z" fill="#777F88"/>
<path opacity="0.4" d="M24.0832 68.8801L14.2253 63.5144L4.36741 68.8801C2.49573 69.8784 1.37256 71.875 1.37256 73.9961V78.6132H27.2026V73.9961C27.0779 71.875 25.8301 69.8784 24.0832 68.8801Z" fill="#777F88"/>
<path fill-rule="evenodd" clip-rule="evenodd" d="M1.24784 79.861H27.0779C27.7019 79.861 28.3257 79.3618 28.201 78.6132V73.9961C28.201 71.3756 26.8284 69.0048 24.5823 67.7569L14.7244 62.3912C14.3501 62.1417 13.8509 62.1417 13.4766 62.3912L3.61869 67.7569C1.37267 69.0048 0 71.3756 0 73.9961V78.6132C0 79.3618 0.499168 79.861 1.24784 79.861ZM25.83 77.3653H2.49568H2.37085V73.9961C2.37085 72.374 3.24436 70.7518 4.7417 70.0031L14.1004 64.8871L23.4592 70.0031C24.9565 70.7518 25.83 72.374 25.83 73.9961V77.3653Z" fill="#777F88"/>
<path d="M20.5891 57.6498C20.5891 62.0172 17.7191 67.0085 14.1004 67.0085C10.4817 67.0085 7.61169 62.142 7.61169 57.6498C7.61169 53.1576 10.4817 51.0363 14.1004 51.0363C17.7191 51.0363 20.5891 53.2824 20.5891 57.6498Z" fill="white"/>
<path fill-rule="evenodd" clip-rule="evenodd" d="M6.36389 57.6497C6.36389 62.6411 9.73308 68.2563 14.1004 68.2563C18.5926 68.2563 21.837 62.6411 21.837 57.6497C21.837 53.0327 18.7175 49.7883 14.1004 49.7883C9.48342 49.7883 6.36389 52.908 6.36389 57.6497ZM8.85957 57.7745C8.85957 54.4054 10.8561 52.4088 14.1004 52.4088C17.4696 52.4088 19.3413 54.4054 19.3413 57.7745C19.3413 61.7676 16.7208 65.8854 14.1004 65.8854C11.4801 65.8854 8.85957 61.7676 8.85957 57.7745Z" fill="#777F88"/>
<path d="M4.74166 30.1975C2.49564 27.2027 1.2478 23.4591 1.2478 19.4661C1.2478 9.3587 9.3587 1.2478 19.4661 1.2478C29.5735 1.2478 37.6844 9.3587 37.6844 19.4661C37.6844 29.5735 29.5735 37.6844 19.4661 37.6844C17.0952 37.6844 14.9739 37.1852 12.8526 36.4366L2.24598 42.5509L4.74166 30.1975Z" fill="white"/>
<path fill-rule="evenodd" clip-rule="evenodd" d="M1.12306 42.3015C0.998383 42.8006 1.24789 43.2998 1.62222 43.5493C1.99656 43.9236 2.49573 43.9236 2.9949 43.6741L13.1023 37.8093C15.2236 38.5579 17.345 38.9323 19.591 38.9323C30.3224 38.9323 39.0572 30.1975 39.0572 19.4661C39.0572 8.73473 30.3224 0 19.591 0C8.85961 0 0.124878 8.73473 0.124878 19.4661C0.124878 23.3343 1.24789 27.2027 3.49391 30.4471L1.12306 42.3015ZM2.49573 19.4661C2.49573 10.1074 10.1075 2.49568 19.4662 2.49568C28.8249 2.49568 36.5615 10.1074 36.5615 19.4661C36.5615 28.8249 28.9497 36.4366 19.591 36.4366C17.4697 36.4366 15.4732 36.0623 13.4766 35.3136C13.1023 35.1889 12.728 35.1889 12.3536 35.4384L4.11791 40.1801L5.98959 30.4471C5.98959 30.0726 5.98959 29.6982 5.74009 29.4487C3.61874 26.5787 2.49573 23.0848 2.49573 19.4661Z" fill="#777F88"/>
<path d="M10.1074 29.0744L8.85957 27.3274C7.2374 25.0814 6.36389 22.336 6.36389 19.5908C6.36389 12.3534 12.3534 6.36389 19.5908 6.36389C26.8282 6.36389 32.8178 12.3534 32.8178 19.5908C32.8178 26.8282 26.8282 32.6931 19.466 32.6931C17.8438 32.6931 16.2216 32.4436 14.7243 31.8196L12.4783 30.9461L9.35874 32.8178L10.1074 29.0744Z" fill="#777F88"/>
<path d="M75.1194 30.1975C77.3654 27.2027 78.6132 23.4593 78.6132 19.4661C78.6132 9.3587 70.5023 1.2478 60.3949 1.2478C50.2875 1.2478 42.1766 9.3587 42.1766 19.4661C42.1766 29.5735 50.2875 37.6844 60.3949 37.6844C62.7658 37.6844 64.8871 37.1852 67.0085 36.4366L77.6151 42.5509L75.1194 30.1975Z" fill="white"/>
<path fill-rule="evenodd" clip-rule="evenodd" d="M66.8837 37.8091L76.9911 43.674C77.3654 43.9236 77.8646 43.9236 78.3636 43.5493C78.7379 43.2998 78.9876 42.8006 78.8628 42.3015L76.4919 30.4471C78.7381 27.2027 79.8611 23.4592 79.8611 19.4661C79.8611 8.73473 71.1262 0 60.395 0C49.6637 0 40.9288 8.73457 40.9288 19.466C40.9288 30.1974 49.6636 38.9321 60.395 38.9321C62.641 38.9321 64.7623 38.5578 66.8837 37.8091ZM67.6324 35.3136C67.3829 35.1888 67.258 35.1888 67.0085 35.1888H66.6342C64.6377 35.9374 62.6411 36.3118 60.5198 36.3118C51.1611 36.3118 43.5493 28.7 43.5493 19.3413C43.5493 9.98257 51.1611 2.37085 60.5198 2.37085C69.8785 2.37085 77.4903 9.98257 77.4903 19.3413C77.4903 22.96 76.3672 26.4539 74.2459 29.3239C73.9964 29.5735 73.8716 29.9479 73.9964 30.3222L75.8681 40.0553L67.6324 35.3136Z" fill="#777F88"/>
<path d="M67.3829 30.9462L65.1368 31.8197C63.6395 32.4436 62.0173 32.6932 60.3951 32.6932C53.1578 32.6932 47.1682 26.7037 47.1682 19.4663C47.1682 12.2289 53.0331 6.23938 60.3951 6.23938C67.7572 6.23938 73.6221 12.2289 73.6221 19.4663C73.6221 22.2115 72.7486 24.9567 71.1264 27.2029L69.8785 28.9499L70.6272 32.6934L67.3829 30.9462Z" fill="#777F88"/>
<path d="M44.6723 36.0623C48.1662 35.0639 51.4105 33.0674 53.7815 30.0727C59.8959 22.461 58.5232 11.2304 50.9115 5.2409C43.2996 -0.873475 32.0692 0.499198 26.0797 8.11092C19.9653 15.598 21.2131 26.8284 28.9497 32.8179C30.6967 34.1906 32.6932 35.1888 34.6897 35.8128L39.0571 46.9185L44.6723 36.0623Z" fill="white"/>
<path fill-rule="evenodd" clip-rule="evenodd" d="M37.9341 47.4175C38.1836 47.7918 38.5579 48.1662 39.0571 48.1662C39.4314 48.1662 39.9306 47.9167 40.1801 47.6672L45.5458 37.1854C49.1645 36.0624 52.4088 33.8164 54.7797 30.8215C57.8992 26.8284 59.3966 21.9618 58.7727 16.8458C58.1489 11.7296 55.6532 7.23739 51.6602 4.11786C48.291 1.37267 44.298 0 39.9306 0C34.0657 0 28.7 2.62051 25.0815 7.23723C21.962 11.2304 20.4646 16.0968 21.0885 21.213C21.7123 26.3292 24.208 30.8214 28.201 33.9409C29.948 35.1888 31.8197 36.1871 33.8162 36.9358L37.9341 47.4175ZM26.9532 8.73489C30.1975 4.7417 34.8146 2.49568 39.9306 2.49568C43.674 2.49568 47.168 3.74352 50.038 6.11453C53.4072 8.85972 55.6532 12.7281 56.1524 17.0954C56.6515 21.4628 55.4037 25.7055 52.6585 29.1994C50.5372 31.9446 47.5425 33.8162 44.1733 34.8146C43.9238 34.9392 43.5494 35.1889 43.4246 35.4384L39.0572 43.9236L35.6881 35.4384C35.5632 35.0641 35.3137 34.8146 34.9394 34.6897C32.9429 34.0657 31.1959 33.0676 29.5737 31.8197C26.2045 29.0745 23.9585 25.2062 23.4593 20.8388C22.9601 16.4714 24.208 12.2288 26.9532 8.73489Z" fill="#777F88"/>
<path d="M38.4331 31.8198L36.187 31.0711C34.6897 30.5719 33.317 29.8233 32.0692 28.9498C26.5788 24.5824 25.5805 16.5962 29.9478 11.1058C32.3187 7.98627 36.0622 6.23926 39.9304 6.23926C42.8004 6.23926 45.5456 7.23759 47.7918 8.98445C50.4123 11.1058 52.1592 14.1005 52.5335 17.4697C52.9078 20.8389 52.0343 24.2079 49.913 26.8284C48.2908 28.9498 45.92 30.4471 43.2994 31.1958L41.1781 31.8196L39.5559 34.9391L38.4331 31.8198Z" fill="#777F88"/>
<path d="M41.9271 11.1057L35.6879 19.3413H39.9306L37.5595 25.0813L44.1731 17.0953L39.9306 16.9704L41.9271 11.1057Z" fill="#777F88"/>
<rect x="47.0432" y="13.3518" width="2.49568" height="2.49568" fill="#777F88"/>
<rect x="47.0432" y="20.2148" width="2.49568" height="2.49568" fill="#777F88"/>
<rect x="30.3223" y="13.3518" width="2.49568" height="2.49568" fill="#777F88"/>
<rect x="30.3223" y="20.2148" width="2.49568" height="2.49568" fill="#777F88"/>
<rect x="9.35876" y="18.0935" width="2.49568" height="2.49568" fill="#777F88"/>
<rect x="15.4731" y="18.0935" width="2.49568" height="2.49568" fill="#777F88"/>
<rect x="61.8923" y="18.0935" width="2.49568" height="2.49568" fill="#777F88"/>
<rect x="68.0067" y="18.0935" width="2.49568" height="2.49568" fill="#777F88"/>
</g>
</svg>
