<svg width="80" height="80" viewBox="0 0 80 80" fill="none" xmlns="http://www.w3.org/2000/svg">
<path opacity="0.1" d="M40 80C62.0914 80 80 62.0914 80 40C80 17.9086 62.0914 0 40 0C17.9086 0 0 17.9086 0 40C0 62.0914 17.9086 80 40 80Z" fill="#777F88"/>
<rect x="24.2857" y="1.42859" width="31.4286" height="17.1429" fill="#FBBD5E"/>
<path fill-rule="evenodd" clip-rule="evenodd" d="M24.127 20H55.873C56.508 20 57.1428 19.5061 57.1428 18.7654V1.23458C57.1428 0.493864 56.6349 0 55.873 0H24.127C23.3651 0 22.8571 0.493864 22.8571 1.23458V18.7654C22.8571 19.5061 23.3651 20 24.127 20ZM54.6031 17.5308H25.3968V2.46916H54.6031V17.5308Z" fill="#777F88"/>
<rect x="28.5714" y="5.71423" width="21.4286" height="7.14286" fill="white"/>
<rect x="24.2857" y="31.4286" width="31.4286" height="17.1429" fill="#4FBF9F"/>
<path fill-rule="evenodd" clip-rule="evenodd" d="M24.127 50H55.873C56.508 50 57.1428 49.3864 57.1428 48.6502V31.227C57.1428 30.4908 56.6349 30 55.873 30H24.127C23.3651 30 22.8571 30.4908 22.8571 31.227V48.773C22.8571 49.5092 23.3651 50 24.127 50ZM54.6031 47.546H25.3968V32.454H54.6031V47.546Z" fill="#777F88"/>
<rect x="28.5714" y="35.7142" width="21.4286" height="7.14286" fill="white"/>
<rect x="24.2857" y="61.4286" width="31.4286" height="17.1429" fill="#F06151"/>
<path fill-rule="evenodd" clip-rule="evenodd" d="M24.127 80H55.873C56.508 80 57.1428 79.5061 57.1428 78.7654V61.2346C57.1428 60.4939 56.6349 60 55.873 60H24.127C23.3651 60 22.8571 60.4939 22.8571 61.2346V78.7654C22.8571 79.5061 23.3651 80 24.127 80ZM54.6031 77.5308H25.3968V62.4692H54.6031V77.5308Z" fill="#777F88"/>
<rect x="28.5714" y="65.7142" width="21.4286" height="7.14286" fill="white"/>
<path d="M11.9791 14.5825C11.6048 14.0857 11.6048 13.2164 12.2286 12.8439L16.2218 9.73927L12.2288 6.63451C11.7296 6.26197 11.6049 5.39265 11.9793 4.89587C12.3536 4.39909 13.2271 4.27501 13.7263 4.64756L18.9671 8.74571C19.3415 8.86994 19.4663 9.24249 19.4663 9.61503C19.4663 9.98758 19.3415 10.3601 19.092 10.6086L13.8509 14.7066C13.2269 15.2034 12.4783 15.0793 11.9791 14.5825Z" fill="#777F88"/>
<path d="M18.2183 10.8569H1.24784C0.499168 10.8569 0 10.3601 0 9.61504C0 8.86995 0.499168 8.37317 1.24784 8.37317H18.2183C18.967 8.37317 19.4661 8.86995 19.4661 9.61504C19.4661 10.3601 18.967 10.8569 18.2183 10.8569Z" fill="#777F88"/>
<path d="M66.135 44.387L60.8941 40.2889C60.6446 40.0406 60.395 39.668 60.395 39.2953C60.395 38.9226 60.5198 38.5502 60.8941 38.3017L66.135 34.2036C66.6342 33.831 67.5077 33.831 67.882 34.4519C68.2563 34.9487 68.2563 35.818 67.6325 36.1906L63.6395 39.2951L67.6325 42.3997C68.1317 42.7723 68.2563 43.6416 67.882 44.1384C67.3828 44.6353 66.6342 44.7596 66.135 44.387Z" fill="#777F88"/>
<path d="M78.6133 40.5372H61.6428C60.8941 40.5372 60.395 40.0404 60.395 39.2954C60.395 38.5503 60.8941 38.0535 61.6428 38.0535H77.3654V10.8569H63.3897C62.641 10.8569 62.1418 10.3601 62.1418 9.61504C62.1418 8.86995 62.641 8.37317 63.3897 8.37317H78.6131C79.3618 8.37317 79.8609 8.86995 79.8609 9.61504V39.1713C79.8611 39.9164 79.2373 40.5372 78.6133 40.5372Z" fill="#777F88"/>
<path d="M11.9791 73.819C11.6048 73.3223 11.6048 72.4529 12.2286 72.0804L16.2218 68.9758L12.2288 65.8712C11.7296 65.4987 11.6049 64.6293 11.9793 64.1326C12.3536 63.6358 13.2271 63.5117 13.7263 63.8842L18.9671 67.9824C19.2167 68.2307 19.4663 68.6033 19.4663 68.976C19.4663 69.3487 19.3415 69.7211 18.9671 69.9695L13.7263 74.0677C13.2269 74.4399 12.4783 74.3158 11.9791 73.819Z" fill="#777F88"/>
<path d="M18.2183 70.0934H1.24784C0.499168 70.0934 0 69.5966 0 68.8515V39.2955C0 38.5504 0.499168 38.0536 1.24784 38.0536H16.4713C17.22 38.0536 17.7191 38.5504 17.7191 39.2955C17.7191 40.0405 17.22 40.5373 16.4713 40.5373H2.49568V67.6098H18.2183C18.967 67.6098 19.4661 68.1066 19.4661 68.8517C19.4661 69.5966 18.967 70.0934 18.2183 70.0934Z" fill="#777F88"/>
<rect x="32.6931" y="8.37317" width="2.49568" height="2.48374" fill="#777F88"/>
<rect x="38.6828" y="8.37317" width="2.49568" height="2.48374" fill="#777F88"/>
<rect x="44.6723" y="8.37317" width="2.49568" height="2.48374" fill="#777F88"/>
<rect x="32.6931" y="38.0536" width="2.49568" height="2.48374" fill="#777F88"/>
<rect x="38.6828" y="38.0536" width="2.49568" height="2.48374" fill="#777F88"/>
<rect x="44.6723" y="38.0536" width="2.49568" height="2.48374" fill="#777F88"/>
<rect x="32.6931" y="67.734" width="2.49568" height="2.48374" fill="#777F88"/>
<rect x="38.6828" y="67.734" width="2.49568" height="2.48374" fill="#777F88"/>
<rect x="44.6723" y="67.734" width="2.49568" height="2.48374" fill="#777F88"/>
</svg>
