<svg width="80" height="80" viewBox="0 0 80 80" fill="none" xmlns="http://www.w3.org/2000/svg">
<g opacity="0.4">
<path d="M34.8144 79.861C54.0419 79.861 69.6288 64.2741 69.6288 45.0466C69.6288 25.8191 54.0419 10.2322 34.8144 10.2322C15.5869 10.2322 0 25.8191 0 45.0466C0 64.2741 15.5869 79.861 34.8144 79.861Z" fill="#777F88"/>
<path d="M32.3187 14.974C50.9113 13.4766 66.2596 28.9497 64.7623 47.4175C63.6393 62.0171 51.7848 73.8716 37.1852 74.9946C18.5926 76.4919 3.24433 61.0188 4.74167 42.551C5.98951 27.9514 17.7191 16.097 32.3187 14.974Z" fill="#E0E4E8"/>
<path fill-rule="evenodd" clip-rule="evenodd" d="M3.4939 45.0466C3.4939 62.2667 17.5943 76.3672 34.8145 76.3672C43.175 76.3672 51.0362 73.1228 56.9011 67.258C62.8906 61.2684 66.135 53.407 66.135 45.0466C66.135 27.8265 52.0344 13.7261 34.8145 13.7261C17.5945 13.7261 3.4939 27.8265 3.4939 45.0466ZM5.86475 45.0466C5.86475 29.0744 18.8422 16.0969 34.8145 16.0969C50.7867 16.0969 63.7642 29.0744 63.7642 45.0466C63.7642 52.7832 60.7695 60.0207 55.2789 65.5111C49.7884 71.0015 42.551 73.9963 34.8145 73.9963C18.8422 73.9963 5.86475 61.0189 5.86475 45.0466Z" fill="#777F88"/>
<path d="M34.8144 70.3775C20.8386 70.3775 9.4834 59.0222 9.4834 45.0465C9.4834 31.0707 20.8386 19.7155 34.8144 19.7155C48.7902 19.7155 60.1454 31.0707 60.1454 45.0465C60.1454 59.0222 48.7902 70.3775 34.8144 70.3775Z" fill="white"/>
<path d="M40.3049 8.73474V15.473C38.5579 15.0986 36.6862 14.9738 34.8145 14.9738C32.9429 14.9738 31.071 15.0986 29.1993 15.473V8.73474H40.3049Z" fill="white"/>
<path fill-rule="evenodd" clip-rule="evenodd" d="M40.1801 16.5961L41.5528 16.8456V7.48706H28.0762V16.8456L29.5735 16.5961C33.0675 15.9723 36.8109 15.9723 40.1801 16.5961ZM30.447 13.9758V9.85791H39.1818V13.9758C36.4366 13.6014 33.4419 13.6014 30.447 13.9758Z" fill="#777F88"/>
<rect x="25.5806" y="1.2478" width="18.3431" height="7.48705" fill="white"/>
<path fill-rule="evenodd" clip-rule="evenodd" d="M24.4575 9.8579H45.1715V0H24.4575V9.8579ZM42.8006 7.48705H26.8284V2.37085H42.8006V7.48705Z" fill="#777F88"/>
<rect x="24.9025" y="64.6741" width="2.37089" height="2.9949" transform="rotate(-150.007 24.9025 64.6741)" fill="#777F88"/>
<rect x="45.2723" y="29.1876" width="2.37089" height="2.9949" transform="rotate(-150.007 45.2723 29.1876)" fill="#777F88"/>
<rect x="33.5665" y="64.0137" width="2.37085" height="2.99485" fill="#777F88"/>
<rect x="33.5665" y="23.0848" width="2.37085" height="2.99485" fill="#777F88"/>
<rect x="44.7961" y="64.6133" width="2.9949" height="2.37089" transform="rotate(-119.993 44.7961 64.6133)" fill="#777F88"/>
<rect x="24.3701" y="29.1718" width="2.99463" height="2.3708" transform="rotate(-120.001 24.3701 29.1718)" fill="#777F88"/>
<rect x="17.8269" y="36.5244" width="2.99463" height="2.3708" transform="rotate(-149.999 17.8269 36.5244)" fill="#777F88"/>
<rect x="53.7814" y="43.7988" width="2.99485" height="2.37085" fill="#777F88"/>
<rect x="12.8525" y="43.7988" width="2.99485" height="2.37085" fill="#777F88"/>
<rect x="51.7913" y="36.541" width="2.37089" height="2.9949" transform="rotate(-119.993 51.7913 36.541)" fill="#777F88"/>
<rect x="16.4132" y="57.0752" width="2.37089" height="2.9949" transform="rotate(-119.993 16.4132 57.0752)" fill="#777F88"/>
<path d="M37.3101 41.3031C40.0553 43.1748 40.0553 47.0431 37.3101 48.9148C35.8128 49.9131 33.8163 49.9131 32.3188 48.9148C29.5736 47.0431 29.5736 43.1748 32.3188 41.3031C33.8163 40.1801 35.8128 40.1801 37.3101 41.3031Z" fill="white"/>
<path fill-rule="evenodd" clip-rule="evenodd" d="M30.8214 49.1645C31.8195 50.1628 33.317 50.7866 34.8144 50.7866C36.3117 50.7866 37.8092 50.1626 38.8074 49.1645C41.0534 46.9184 41.0534 43.2996 38.8074 41.0536C37.8092 40.0552 36.3117 39.4314 34.8144 39.4314C33.317 39.4314 31.9444 39.9306 30.8214 41.0536C28.5753 43.2996 28.5753 46.9184 30.8214 49.1645ZM32.4435 42.6758C33.0674 42.0518 33.9409 41.6774 34.8144 41.6774C35.6879 41.6774 36.5614 42.0518 37.1852 42.6758C38.4331 44.0483 38.4331 46.1696 37.1852 47.4175C35.9374 48.6653 33.6914 48.6653 32.4435 47.4175C31.1957 46.0449 31.1957 43.9236 32.4435 42.6758Z" fill="#777F88"/>
<rect x="33.5665" y="29.5735" width="2.37085" height="10.9809" fill="#777F88"/>
<rect x="39.3066" y="43.7988" width="7.61172" height="2.37085" fill="#777F88"/>
<path d="M78.4883 59.1471C79.9857 68.5058 72.1245 76.4919 62.7657 74.8697C57.1505 73.9962 52.5335 69.3793 51.66 63.764C50.0378 54.5301 58.0239 46.5439 67.3826 48.0414C72.998 49.0397 77.4902 53.5319 78.4883 59.1471Z" fill="#E4E5E7"/>
<path fill-rule="evenodd" clip-rule="evenodd" d="M50.1628 61.5181C50.1628 69.7536 56.7762 76.3672 65.012 76.3672C73.2475 76.3672 79.8611 69.7536 79.8611 61.5181C79.8611 53.2825 73.2475 46.6689 65.012 46.6689C56.7764 46.6689 50.1628 53.2825 50.1628 61.5181ZM52.5337 61.5179C52.5337 54.6548 58.1489 49.0396 65.012 49.0396C71.875 49.0396 77.4902 54.6548 77.4902 61.5179C77.4902 68.3809 71.875 73.9962 65.012 73.9962C58.1489 73.9962 52.5337 68.3809 52.5337 61.5179Z" fill="#777F88"/>
<path d="M61.1436 63.3897C61.7675 63.0154 62.3915 62.5162 62.7658 62.2667C63.1402 61.8924 63.5145 61.518 63.8888 61.0189C64.2632 60.5197 64.388 60.0205 64.388 59.5215C64.388 58.8977 64.2632 58.3985 64.0137 58.0242C63.7642 57.6498 63.3898 57.2755 62.8907 57.0258C62.3915 56.7763 61.8923 56.6515 61.2685 56.6515C60.1455 56.6515 59.1471 56.901 58.2736 57.4002C58.0241 57.525 57.8993 57.7745 57.8993 58.1488C57.8993 58.3983 58.0241 58.5232 58.1488 58.648C58.3983 58.8975 58.7726 58.8975 59.0223 58.7728C59.6461 58.5233 60.395 58.2737 61.1436 58.2737C61.7675 58.2737 62.2667 58.3985 62.5163 58.648C62.7658 58.8975 62.8907 59.2718 62.8907 59.6463C62.8907 59.8958 62.7658 60.1455 62.6411 60.395C62.3916 60.6445 62.2668 60.8942 61.8925 61.1437C61.643 61.3932 61.1438 61.6429 60.6446 62.0172C60.0208 62.3915 59.5216 62.7659 59.1473 63.0155C58.7729 63.265 58.3986 63.6394 58.1489 64.0139C57.8993 64.3884 57.6498 64.8874 57.6498 65.3865C57.6498 65.636 57.7746 65.8857 57.8993 66.0104C58.0241 66.1352 58.2736 66.2599 58.5231 66.2599H63.5145C63.764 66.2599 63.8888 66.1351 64.1383 66.0104C64.2632 65.8855 64.2632 65.7609 64.2632 65.5112C64.2632 65.2617 64.1383 65.1369 64.0137 64.8874V64.8874C63.8888 64.7625 63.6393 64.6379 63.3898 64.6379H59.3968C59.5216 64.513 59.6463 64.3884 59.7711 64.3884C60.1455 64.1384 60.5198 63.8887 61.1436 63.3897Z" fill="#777F88"/>
<path fill-rule="evenodd" clip-rule="evenodd" d="M72.8732 62.5162C72.998 62.5162 73.2476 62.6409 73.3724 62.7658C73.4972 62.8906 73.6219 63.0154 73.6217 63.2649C73.6217 63.3898 73.4971 63.6393 73.3722 63.7641L73.372 63.7643C73.2472 63.8889 73.1224 64.0136 72.8731 64.0136H72.1244V65.5109C72.1244 65.7604 71.9997 66.01 71.8749 66.1348C71.808 66.1682 71.75 66.2017 71.6962 66.2327C71.5494 66.3174 71.4336 66.3843 71.251 66.3843C71.0015 66.3843 70.752 66.2596 70.6272 66.1348C70.5938 66.0679 70.5603 66.0099 70.5293 65.9561C70.4445 65.8094 70.3777 65.6935 70.3777 65.5109V64.0136H66.6342C66.2598 64.0136 66.135 64.0136 65.8855 63.7641L65.8853 63.7636C65.7607 63.5143 65.636 63.2648 65.636 63.0154V62.8906C65.636 62.6411 65.7607 62.3916 65.8855 62.2667L69.8785 57.1507C69.9409 57.0884 70.0032 57.0572 70.0656 57.0261C70.128 56.9949 70.1904 56.9637 70.2529 56.9012C70.3777 56.7764 70.6272 56.7764 70.752 56.7764H71.0015C71.3759 56.7764 71.6255 56.7764 71.875 57.0259L71.8753 57.0263C71.9999 57.2757 72.1245 57.5252 72.1245 57.7745V62.5162H72.8732ZM70.3775 62.5161V59.0222L67.757 62.5161H70.3775Z" fill="#777F88"/>
</g>
</svg>
