<svg width="80" height="80" viewBox="0 0 80 80" fill="none" xmlns="http://www.w3.org/2000/svg">
<g opacity="0.4">
<path opacity="0.1" d="M39.9366 79.8733C61.993 79.8733 79.8733 61.993 79.8733 39.9366C79.8733 17.8802 61.993 0 39.9366 0C17.8802 0 0 17.8802 0 39.9366C0 61.993 17.8802 79.8733 39.9366 79.8733Z" fill="#777F88"/>
<path d="M15.6039 74.6296L19.2158 61.7821C17.8376 59.0415 16.9663 55.9207 16.9663 52.5465C16.9663 41.0613 26.202 31.8257 37.6871 31.8257V31.8257C49.1723 31.8257 58.4079 41.0613 58.4079 52.5465C58.4079 64.0316 49.299 73.1405 37.8138 73.1405V73.1405C34.4396 73.1405 31.3188 72.396 28.5782 70.891L15.6039 74.6296Z" fill="white"/>
<path fill-rule="evenodd" clip-rule="evenodd" d="M14.3525 74.2495C14.2257 74.7564 14.3525 75.1208 14.7327 75.501C15.097 75.7544 15.4772 75.8812 15.8574 75.7544L28.3247 72.2376C31.3188 73.6158 34.4396 74.3604 37.6871 74.3604C49.7901 74.3604 59.6435 64.5069 59.6435 52.4039C59.6435 40.301 49.7901 30.4475 37.6871 30.4475C25.5841 30.4475 15.7307 40.301 15.7307 52.4039C15.7307 55.6515 16.4752 58.7723 17.8534 61.7663L14.3525 74.2495ZM18.3445 52.4198C18.3445 41.6792 27.0891 32.9505 37.8138 32.9505C48.5544 32.9505 57.394 41.8059 57.394 52.5465C57.394 63.2871 48.6495 72.0158 37.9247 72.0158C34.8039 72.0158 31.9366 71.2713 29.196 69.8931C28.9426 69.7663 28.5782 69.6396 28.3247 69.7663L17.6 72.7604L20.594 62.0198C20.594 61.7663 20.594 61.402 20.4673 61.1485C19.0891 58.4079 18.3445 55.4138 18.3445 52.4198Z" fill="#777F88"/>
<path d="M37.8139 68.5148C46.6693 68.5148 53.9089 61.2752 53.9089 52.4198C53.9089 43.5643 46.6693 36.3247 37.8139 36.3247C28.9584 36.3247 21.7188 43.5485 21.7188 52.4198C21.7188 61.291 28.9584 68.5148 37.8139 68.5148Z" fill="#777F88"/>
<path d="M74.6297 51.1683L71.3822 39.6832C72.6337 37.1802 73.3782 34.4396 73.3782 31.4455C73.3782 21.2119 65.1406 12.9742 54.907 12.9742V12.9742C44.6733 12.9742 36.4357 21.2119 36.4357 31.4455C36.4357 41.6792 44.6733 49.9168 54.907 49.9168V49.9168C57.901 49.9168 60.6416 49.1723 63.1446 47.9208L74.6297 51.1683Z" fill="white"/>
<path fill-rule="evenodd" clip-rule="evenodd" d="M63.2713 49.299L74.2495 52.4198C74.7564 52.5466 75.2475 52.4198 75.501 52.0396C75.8812 51.6594 76.0079 51.1684 75.8812 50.7882L72.7604 39.8099C74.0119 37.1802 74.6297 34.3129 74.6297 31.4456C74.6297 20.5941 65.7584 11.7386 54.9069 11.7386C44.0554 11.7386 35.1841 20.5783 35.1841 31.4456C35.1841 42.3129 44.0554 51.1684 54.9069 51.1684C57.7742 51.1684 60.6574 50.5505 63.2713 49.299ZM63.5247 46.7961H63.1445H62.7802C60.2931 48.0476 57.6634 48.6654 55.0495 48.6654C45.5604 48.6654 37.8297 40.9347 37.8297 31.4456C37.8297 21.9565 45.5604 14.2258 55.0495 14.2258C64.5386 14.2258 72.2693 21.9565 72.2693 31.4456C72.2693 34.1862 71.6515 36.8 70.4 39.1763C70.2733 39.4297 70.1465 39.7941 70.2733 40.0476L72.8871 49.4099L63.5247 46.7961Z" fill="#777F88"/>
<path d="M54.9069 45.4337C47.1762 45.4337 40.9346 39.1921 40.9346 31.4614C40.9346 23.7307 47.1762 17.4891 54.9069 17.4891C62.6376 17.4891 68.8792 23.7307 68.8792 31.4614C68.8792 39.1921 62.6534 45.4337 54.9069 45.4337Z" fill="#777F88"/>
<path d="M5.49701 43.5486L8.74453 32.0634C7.49305 29.5604 6.74849 26.8198 6.74849 23.8258C6.74849 13.5921 14.9861 5.35449 25.2198 5.35449V5.35449C35.4534 5.35449 43.6911 13.5921 43.6911 23.8258C43.6911 34.0594 35.4376 42.3129 25.2198 42.3129V42.3129C22.2257 42.3129 19.4851 41.5684 16.9822 40.3169L5.49701 43.5486Z" fill="white"/>
<path fill-rule="evenodd" clip-rule="evenodd" d="M4.24552 43.1841C4.11879 43.6911 4.24552 44.0554 4.62572 44.4356C4.87919 44.8 5.37028 44.9267 5.87721 44.8L16.8554 41.695C19.4851 42.9465 22.3525 43.5643 25.2198 43.5643C36.0871 43.5643 44.9426 34.7089 44.9426 23.8415C44.9426 12.9742 36.0871 4.11877 25.2198 4.11877C14.3525 4.11877 5.49701 12.9901 5.49701 23.8415C5.49701 26.7089 6.11483 29.592 7.36631 32.2059L4.24552 43.1841ZM7.99998 23.8415C7.99998 14.3524 15.7307 6.62174 25.2198 6.62174C34.693 6.62174 42.4396 14.4792 42.4396 23.9683C42.4396 33.4574 34.7089 41.1881 25.2198 41.1881C22.4792 41.1881 19.8653 40.5703 17.4891 39.3188C17.2356 39.192 16.8713 39.0653 16.6178 39.192L7.25542 41.8059L9.99602 32.4435C9.99602 32.1901 9.99602 31.8257 9.86929 31.5722C8.6178 29.0851 7.99998 26.4554 7.99998 23.8415Z" fill="#777F88"/>
<path d="M25.2198 37.8138C32.9505 37.8138 39.1921 31.5722 39.1921 23.8415C39.1921 16.1108 32.9505 9.86926 25.2198 9.86926C17.4891 9.86926 11.2475 16.1108 11.2475 23.8415C11.2475 31.5722 17.4732 37.8138 25.2198 37.8138Z" fill="#777F88"/>
<path d="M17.6 25.9644C18.7724 25.9644 19.7228 25.014 19.7228 23.8416C19.7228 22.6693 18.7724 21.7189 17.6 21.7189C16.4276 21.7189 15.4772 22.6693 15.4772 23.8416C15.4772 25.014 16.4276 25.9644 17.6 25.9644Z" fill="white"/>
<path d="M25.2198 25.9644C26.3922 25.9644 27.3426 25.014 27.3426 23.8416C27.3426 22.6693 26.3922 21.7189 25.2198 21.7189C24.0474 21.7189 23.097 22.6693 23.097 23.8416C23.097 25.014 24.0474 25.9644 25.2198 25.9644Z" fill="white"/>
<path d="M32.8238 25.9644C33.9961 25.9644 34.9465 25.014 34.9465 23.8416C34.9465 22.6693 33.9961 21.7189 32.8238 21.7189C31.6514 21.7189 30.701 22.6693 30.701 23.8416C30.701 25.014 31.6514 25.9644 32.8238 25.9644Z" fill="white"/>
<path d="M47.3029 33.5684C48.4753 33.5684 49.4257 32.618 49.4257 31.4456C49.4257 30.2733 48.4753 29.3229 47.3029 29.3229C46.1306 29.3229 45.1802 30.2733 45.1802 31.4456C45.1802 32.618 46.1306 33.5684 47.3029 33.5684Z" fill="white"/>
<path d="M54.907 33.5684C56.0793 33.5684 57.0297 32.618 57.0297 31.4456C57.0297 30.2733 56.0793 29.3229 54.907 29.3229C53.7346 29.3229 52.7842 30.2733 52.7842 31.4456C52.7842 32.618 53.7346 33.5684 54.907 33.5684Z" fill="white"/>
<path d="M62.5268 33.5684C63.6991 33.5684 64.6495 32.618 64.6495 31.4456C64.6495 30.2733 63.6991 29.3229 62.5268 29.3229C61.3544 29.3229 60.404 30.2733 60.404 31.4456C60.404 32.618 61.3544 33.5684 62.5268 33.5684Z" fill="white"/>
<path d="M30.2099 55.2872C31.3823 55.2872 32.3327 54.3368 32.3327 53.1644C32.3327 51.992 31.3823 51.0416 30.2099 51.0416C29.0376 51.0416 28.0872 51.992 28.0872 53.1644C28.0872 54.3368 29.0376 55.2872 30.2099 55.2872Z" fill="white"/>
<path d="M37.8139 55.2872C38.9862 55.2872 39.9366 54.3368 39.9366 53.1644C39.9366 51.992 38.9862 51.0416 37.8139 51.0416C36.6415 51.0416 35.6911 51.992 35.6911 53.1644C35.6911 54.3368 36.6415 55.2872 37.8139 55.2872Z" fill="white"/>
<path d="M45.4337 55.2872C46.6061 55.2872 47.5565 54.3368 47.5565 53.1644C47.5565 51.992 46.6061 51.0416 45.4337 51.0416C44.2613 51.0416 43.3109 51.992 43.3109 53.1644C43.3109 54.3368 44.2613 55.2872 45.4337 55.2872Z" fill="white"/>
</g>
</svg>
