<?xml version="1.0" encoding="UTF-8"?>
<svg viewBox="0 0 144 26" xmlns="http://www.w3.org/2000/svg">
<path d="m39.165 16.181h0.101l6.7001-6.8306h4.2422l-7.4744 7.1292 8.1142 8.5881h-4.377l-7.2051-8.1571h-0.101v8.1571h-3.1649v-25.068h3.1649v16.181zm13.309-3.4485c0-0.42-0.0112-0.9616-0.0337-1.6247-0.0224-0.6632-0.0561-1.249-0.101-1.7574h2.9965c0.0449 0.39791 0.0786 0.85665 0.101 1.376 0.0225 0.5195 0.0337 0.9451 0.0337 1.2766h0.101c0.4489-0.9284 1.1055-1.6745 1.9696-2.2382 0.8642-0.5637 1.835-0.84555 2.9124-0.84555 0.4938 0 0.9091 0.04421 1.2457 0.13263l-0.1346 2.8848c-0.449-0.1105-0.9315-0.1658-1.4478-0.1658-0.7632 0-1.4253 0.1382-1.9865 0.4145-0.5611 0.2763-1.0269 0.6466-1.3972 1.1108-0.3704 0.4643-0.6453 1.0003-0.8249 1.6082s-0.2693 1.2435-0.2693 1.9067v8.2565h-3.1649v-12.335zm26.541 4.4433c0 1.2158-0.2188 2.3322-0.6565 3.349-0.4377 1.0169-1.0437 1.8956-1.8181 2.6362-0.7744 0.7405-1.6891 1.3152-2.744 1.7242-1.055 0.409-2.1885 0.6134-3.4006 0.6134s-2.3456-0.2044-3.4005-0.6134c-1.055-0.409-1.964-0.9837-2.7272-1.7242-0.7632-0.7406-1.3636-1.6193-1.8013-2.6362-0.4377-1.0168-0.6565-2.1332-0.6565-3.349s0.2188-2.3266 0.6565-3.3324c0.4377-1.0059 1.0381-1.8735 1.8013-2.603s1.6722-1.2987 2.7272-1.7077c1.0549-0.40896 2.1884-0.61344 3.4005-0.61344s2.3456 0.20448 3.4006 0.61344c1.0549 0.40896 1.9696 0.97817 2.744 1.7077s1.3804 1.5971 1.8181 2.603c0.4377 1.0058 0.6565 2.1166 0.6565 3.3324zm-3.2995 0c0-0.7516-0.1178-1.47-0.3535-2.1553s-0.578-1.2877-1.0269-1.8072c-0.4489-0.5194-1.0045-0.9339-1.6666-1.2434-0.6622-0.3095-1.4197-0.4642-2.2727-0.4642-0.8529 0-1.6105 0.1547-2.2726 0.4642-0.6622 0.3095-1.2177 0.724-1.6666 1.2434-0.449 0.5195-0.7913 1.1219-1.0269 1.8072-0.2357 0.6853-0.3536 1.4037-0.3536 2.1553s0.1179 1.47 0.3536 2.1553c0.2356 0.6853 0.5779 1.2932 1.0269 1.8238 0.4489 0.5305 1.0044 0.9505 1.6666 1.26 0.6621 0.3095 1.4197 0.4642 2.2726 0.4642 0.853 0 1.6105-0.1547 2.2727-0.4642 0.6621-0.3095 1.2177-0.7295 1.6666-1.26 0.4489-0.5306 0.7912-1.1385 1.0269-1.8238s0.3535-1.4037 0.3535-2.1553zm19.201 5.4049c-0.606 0.9505-1.4309 1.6745-2.4746 2.1719s-2.138 0.746-3.2827 0.746c-1.2346 0-2.3456-0.2155-3.3332-0.6466-0.9877-0.431-1.8294-1.0223-2.5252-1.7739s-1.2345-1.6359-1.6161-2.6527c-0.3816-1.0169-0.5724-2.1001-0.5724-3.2496s0.1908-2.2271 0.5724-3.233c0.3816-1.0058 0.9259-1.8845 1.6329-2.6361 0.7071-0.7516 1.5544-1.3374 2.542-1.7574 0.9877-0.42002 2.0763-0.63002 3.2659-0.63002 1.3019 0 2.4354 0.27079 3.4006 0.81239 0.9651 0.54162 1.7283 1.1992 2.2894 1.9729h0.0674v-11.705h3.1649v25.068h-3.0639v-2.4869h-0.0674zm-10.505-5.4049c0 0.7295 0.1122 1.4369 0.3367 2.1222 0.2244 0.6852 0.5611 1.2932 1.01 1.8237s0.9989 0.9561 1.6498 1.2766 1.4141 0.4808 2.2895 0.4808c0.808 0 1.5431-0.1547 2.2053-0.4642 0.6621-0.3095 1.2289-0.724 1.7003-1.2435 0.4713-0.5195 0.8361-1.1218 1.0942-1.8071s0.3872-1.4037 0.3872-2.1553-0.1291-1.4701-0.3872-2.1553c-0.2581-0.6853-0.6229-1.2932-1.0942-1.8238-0.4714-0.5305-1.0382-0.9505-1.7003-1.26-0.6622-0.3095-1.3973-0.4642-2.2053-0.4642-0.8754 0-1.6386 0.1547-2.2895 0.4642s-1.2009 0.7295-1.6498 1.26c-0.4489 0.5306-0.7856 1.1385-1.01 1.8238-0.2245 0.6852-0.3367 1.3926-0.3367 2.1221zm29.2 7.8918c-0.044-0.3979-0.078-0.8456-0.101-1.343-0.022-0.4973-0.033-0.9118-0.033-1.2434h-0.068c-0.404 0.84-1.083 1.5529-2.037 2.1387-0.953 0.5858-2.014 0.8787-3.181 0.8787-1.033 0-1.925-0.1658-2.677-0.4973-0.752-0.3316-1.369-0.7903-1.852-1.3761-0.482-0.5858-0.841-1.2656-1.077-2.0393s-0.354-1.6027-0.354-2.4869v-9.7486h3.165v8.6876c0 0.6411 0.051 1.2545 0.152 1.8403s0.286 1.0998 0.555 1.5419c0.27 0.4421 0.64 0.7958 1.111 1.0611 0.472 0.2653 1.078 0.3979 1.819 0.3979 1.279 0 2.311-0.4697 3.097-1.4092s1.178-2.194 1.178-3.7636v-8.356h3.165v12.335c0 0.42 0.012 0.9616 0.034 1.6248 0.022 0.6631 0.056 1.2489 0.101 1.7574h-2.997zm18.326-11.738c-0.337-0.5084-0.842-0.934-1.515-1.2766-0.674-0.3427-1.392-0.514-2.155-0.514-0.83 0-1.566 0.1548-2.205 0.4642-0.64 0.3095-1.184 0.724-1.633 1.2435s-0.791 1.1219-1.027 1.8071c-0.236 0.6853-0.354 1.4038-0.354 2.1554s0.118 1.47 0.354 2.1553 0.578 1.2876 1.027 1.8071 0.999 0.934 1.65 1.2435c0.65 0.3095 1.391 0.4642 2.222 0.4642 0.808 0 1.543-0.1547 2.205-0.4642s1.206-0.7295 1.633-1.26l2.121 1.89c-0.673 0.7737-1.515 1.3761-2.525 1.8071-1.01 0.4311-2.155 0.6466-3.434 0.6466-1.235 0-2.374-0.1989-3.418-0.5968-1.043-0.3979-1.947-0.9561-2.71-1.6745-0.763-0.7185-1.364-1.5861-1.801-2.603-0.438-1.0169-0.657-2.1553-0.657-3.4153 0-1.238 0.213-2.3654 0.64-3.3822 0.426-1.0169 1.021-1.8901 1.784-2.6196s1.667-1.2932 2.711-1.691c1.043-0.39791 2.171-0.59686 3.383-0.59686 1.123 0 2.239 0.22106 3.35 0.66317 1.111 0.44214 1.992 1.0831 2.643 1.9232l-2.289 1.8237zm12.063-1.4258h-4.242v8.1902c0 0.9505 0.179 1.6303 0.538 2.0392 0.36 0.409 0.932 0.6135 1.718 0.6135 0.291 0 0.606-0.0332 0.942-0.0995 0.337-0.0663 0.64-0.1658 0.909-0.2984l0.101 2.5532c-0.381 0.1326-0.802 0.2376-1.262 0.315s-0.937 0.116-1.431 0.116c-1.504 0-2.654-0.4089-3.451-1.2268s-1.195-2.0448-1.195-3.6806v-8.5218h-3.064v-2.5532h3.064v-4.5096h3.131v4.5096h4.242v2.5532z" clip-rule="evenodd" fill="#011F3F" fill-rule="evenodd"/>
<path d="m17.999 2.7565c-5.7409-3.2465-13.065-1.3128-16.39 4.3271-3.3132 5.6542-1.347 12.884 4.3916 16.149 5.7386 3.2645 13.076 1.3272 16.39-4.3271 3.3131-5.6542 1.347-12.884-4.3916-16.149zm-15.568 4.7942l0.01676 0.00953c2.8102-4.7848 8.811-6.7387 13.961-4.5458-2.2293 0.61648-6.0141 3.3996-8.5047 7.65-2.6299 4.4882-3.4972 9.0191-2.4696 11.079-4.5126-3.2936-5.8042-9.3962-3.0039-14.192z" clip-rule="evenodd" fill="#0960BD" fill-rule="evenodd"/>
</svg>
